<?xml version="1.0" encoding="utf-8"?>
<!-- Generator: Adobe Illustrator 22.0.1, SVG Export Plug-In . SVG Version: 6.00 Build 0)  -->
<svg version="1.1" id="Layer_1" xmlns="http://www.w3.org/2000/svg" xmlns:xlink="http://www.w3.org/1999/xlink" x="0px" y="0px"
	 viewBox="0 0 300 300" style="enable-background:new 0 0 300 300;" xml:space="preserve">
<style type="text/css">
	.st0{fill:#00A2E8;}
</style>
<path class="st0" d="M287.3,243c-0.1-1.8-0.9-3.5-2.2-4.7L172.8,126c4.4-10.4,6.7-21.7,6.7-33.3c0-22.8-8.9-44.2-24.9-60.3
	C138.6,16.4,117.2,7.5,94.4,7.5c-22.8,0-44.1,8.9-60.2,25c-33.2,33.2-33.2,87.3,0,120.5c16.1,16.1,37.5,25,60.2,25
	c11.6,0,22.9-2.4,33.3-6.8l36.9,36.9c1.5,1.5,3.6,2.3,5.7,2.2l20.1-0.7l-0.7,20.1c-0.1,2.1,0.7,4.2,2.2,5.7c1.5,1.5,3.6,2.3,5.7,2.2
	l20.2-0.7l-0.7,20.1c-0.1,2.1,0.8,4.2,2.2,5.7c1.5,1.5,3.3,2.3,5.7,2.3l20.1-0.7l-0.7,20.1c-0.1,2.2,0.8,4.4,2.4,5.9
	c1.5,1.3,3.3,2.1,5.2,2.1c0.3,0,0.6,0,0.8,0l30.9-3.4c4.2-0.5,7.2-4.2,6.8-8.4L287.3,243z M84.1,82.4c-9.5,9.5-24.8,9.5-34.3,0
	c-9.5-9.5-9.5-24.8,0-34.2c9.5-9.5,24.8-9.5,34.3,0C93.6,57.6,93.6,73,84.1,82.4z M261,245.6c-1.1,1.1-2.6,1.7-4.1,1.7
	s-3-0.6-4.1-1.7L157.3,150c2.7-2.9,5.1-5.9,7.3-9.1l96.4,96.4C263.2,239.6,263.2,243.3,261,245.6z"/>
</svg>
