<?xml version="1.0" encoding="utf-8"?>
<!-- Generator: Adobe Illustrator 22.0.1, SVG Export Plug-In . SVG Version: 6.00 Build 0)  -->
<svg version="1.1" id="Capa_1" xmlns="http://www.w3.org/2000/svg" xmlns:xlink="http://www.w3.org/1999/xlink" x="0px" y="0px"
	 viewBox="0 0 47 47" style="enable-background:new 0 0 47 47;" xml:space="preserve">
<style type="text/css">
	.st0{fill:#00A2E8;}
</style>
<g>
	<g>
		<path class="st0" d="M8.7,3.9h-4C2.1,3.9,0,6,0,8.6v29.8c0,2.6,2.1,4.7,4.7,4.7h4v-9.4h3.9v-7.9H8.7V3.9z"/>
		<path class="st0" d="M42.3,3.9H16.5v9.4h-3.9v7.9h3.9v21.9h25.8c2.6,0,4.7-2.1,4.7-4.7V8.6C47,6,44.9,3.9,42.3,3.9z M36.3,31.5
			C36.3,31.5,36.3,31.5,36.3,31.5c0,1.8-2.1,3.3-4.7,3.3s-4.7-1.5-4.7-3.3c0-0.4,2.6-10.7,2.6-10.7c-1.4-0.8-2.4-2.3-2.4-4
			c0-2.5,2-4.5,4.5-4.5c2.5,0,4.5,2,4.5,4.5c0,1.8-1,3.3-2.4,4C33.7,20.8,36.3,31.1,36.3,31.5L36.3,31.5L36.3,31.5z"/>
	</g>
</g>
</svg>
